# xmcd
#
# Track frame offsets: 
#        150
#        20024
#        38974
#        66085
#        87373
#        110441
#        137021
#        170383
#        188146
#        208824
#        234189
#
# Disc length: 3406 seconds
#
# Revision: 0
# Processed by: cddbd v1.5.2PL0 Copyright (c) Steve Scherf et al.
# Submitted via: ExactAudioCopy v0.99pb5
#
DISCID=930d4c0b
DTITLE=Eddie Reddick - All Basses Covered
DYEAR=2005
DGENRE=R&B Funk
TTITLE0=More Sway
TTITLE1=Hot Hot
TTITLE2=Locomotion
TTITLE3=If You Believe That
TTITLE4=Stay Gone
TTITLE5=Old School Party Groove
TTITLE6=The Scat Song
TTITLE7=Never Look Back
TTITLE8=sunset
TTITLE9=Dueling Bass Jam
TTITLE10=Thinking Of You
EXTD=
EXTT0=
EXTT1=
EXTT2=
EXTT3=
EXTT4=
EXTT5=
EXTT6=
EXTT7=
EXTT8=
EXTT9=
EXTT10=
PLAYORDER=
